<?xml version="1.0" encoding="utf-8"?>
<!-- Generator: Adobe Illustrator 25.4.1, SVG Export Plug-In . SVG Version: 6.00 Build 0)  -->
<svg version="1.1" baseProfile="tiny" id="Code" xmlns="http://www.w3.org/2000/svg" xmlns:xlink="http://www.w3.org/1999/xlink"
	 x="0px" y="0px" viewBox="0 0 25 35" overflow="visible" xml:space="preserve">
<g>
	<polygon fill="#35537B" points="17,1 16.1,1 16.1,9.9 24,9.9 24,8.9 	"/>
	<path fill="#35537B" d="M14.1,10.9V1H1.7C1.3,1,1,1.3,1,1.7v31.7C1,33.7,1.3,34,1.7,34h21.7c0.4,0,0.7-0.3,0.7-0.7V11.9h-8.9
		C14.5,11.9,14.1,11.4,14.1,10.9z M8.2,25.6c0.4,0.4,0.4,1,0,1.4c-0.2,0.2-0.5,0.3-0.7,0.3S7,27.2,6.8,27l-3.6-3.6
		c-0.4-0.4-0.4-1,0-1.4L7,18.2c0.4-0.4,1-0.4,1.4,0s0.4,1,0,1.4l-3.1,3.1L8.2,25.6z M16.3,19.6c-0.4-0.4-0.4-1,0-1.4s1-0.4,1.4,0
		l3.6,3.6c0.4,0.4,0.4,1,0,1.4L17.6,27c-0.2,0.2-0.5,0.3-0.7,0.3s-0.5-0.1-0.7-0.3c-0.4-0.4-0.4-1,0-1.4l3.1-3.1L16.3,19.6z
		 M11.3,29.9l-1.9-0.5l3.8-14.1l1.9,0.5L11.3,29.9z"/>
</g>
</svg>
