<?xml version="1.0" encoding="utf-8"?>
<!-- Generator: Adobe Illustrator 25.4.1, SVG Export Plug-In . SVG Version: 6.00 Build 0)  -->
<svg version="1.1" baseProfile="tiny" id="Layer_5" xmlns="http://www.w3.org/2000/svg" xmlns:xlink="http://www.w3.org/1999/xlink"
	 x="0px" y="0px" viewBox="0 0 35 35" overflow="visible" xml:space="preserve">
<path fill="#35537B" d="M31.9,8.3H17.2l-2.7-2.1C14.3,6.1,14.1,6,13.9,6H3C2.4,6,2,6.6,2,7.2C2,9.6,2,25,2,27.7
	C2,28.4,2.5,29,3.1,29h28.7c0.6,0,1.1-0.6,1.1-1.3V9.7C33,8.9,32.5,8.3,31.9,8.3z M31.1,10.6v16.3H3.9v-14H14c0.8,0,2-1.8,2.5-2.3
	H31.1z M14,8.6l1.8,1.3l-1.5,1.8c0,0-0.2,0.1-0.4,0.1H4V8.6C4,8.6,14,8.6,14,8.6z"/>
</svg>
