<?xml version="1.0" encoding="utf-8"?>
<!-- Generator: Adobe Illustrator 25.4.1, SVG Export Plug-In . SVG Version: 6.00 Build 0)  -->
<svg version="1.1" baseProfile="tiny" id="Layer_2" xmlns="http://www.w3.org/2000/svg" xmlns:xlink="http://www.w3.org/1999/xlink"
	 x="0px" y="0px" viewBox="0 0 25 35" overflow="visible" xml:space="preserve">
<g>
	<polygon fill="#35537B" points="17,1 16.1,1 16.1,9.9 24,9.9 24,8.9 	"/>
	<path fill="#35537B" d="M14.1,10.9V1H1.6C1.3,1,1,1.3,1,1.7v31.7C1,33.7,1.3,34,1.6,34h21.7c0.4,0,0.7-0.3,0.7-0.7V11.9h-8.9
		C14.5,11.9,14.1,11.4,14.1,10.9z M18.2,17.4c0,0.7-0.6,1-0.9,1c-0.2,0-0.3-0.2-0.4-0.4c-0.2-0.9-0.5-1.2-0.7-1.2s-0.5,0.3-0.8,1
		c-0.4,0.9-0.7,1.8-0.9,2.8H16c0.1,0.2,0,0.6-0.2,0.7h-1.6c-0.5,1.7-1,3.4-1.5,5c-0.3,0.9-0.6,1.8-1,2.4c-0.4,0.6-1.3,1.2-2.3,1.2
		C8.7,30,8,29.6,8,28.9C8,28.4,8.5,28,8.9,28c0.2,0,0.3,0.1,0.4,0.2c0.4,0.6,0.7,1,0.8,1c0.2,0,0.3-0.2,0.5-1.1l1.8-6.8h-1.3
		c-0.1-0.3,0-0.7,0.2-0.7h1.3c0.3-0.8,0.5-1.6,1-2.4c0.6-1.1,1.6-2,3-2C17.7,16.2,18.2,16.7,18.2,17.4z"/>
</g>
</svg>
