<?xml version="1.0" encoding="utf-8"?>
<!-- Generator: Adobe Illustrator 25.4.1, SVG Export Plug-In . SVG Version: 6.00 Build 0)  -->
<svg version="1.1" baseProfile="tiny" id="Image" xmlns="http://www.w3.org/2000/svg" xmlns:xlink="http://www.w3.org/1999/xlink"
	 x="0px" y="0px" viewBox="0 0 25 35" overflow="visible" xml:space="preserve">
<g>
	<path fill="none" d="M9.9,19.3c-0.2-0.3-0.5-0.5-0.9-0.5c-0.4,0-0.7,0.2-0.9,0.5l-5.1,9.7c-0.1,0.3-0.1,0.6,0.1,0.8
		s0.5,0.4,0.8,0.4l11,0c0,0,0,0,0,0c0,0,0,0,0,0l6,0h0c0.4,0,0.7-0.2,0.9-0.4c0.2-0.3,0.2-0.6,0-0.9L17,21.1
		c-0.2-0.3-0.5-0.5-0.9-0.5c-0.4,0-0.7,0.2-0.9,0.5l-1.9,3.7L9.9,19.3z M16.2,23.5l3.1,5.1l-3.7,0l-1.1-1.8L16.2,23.5z M11.4,28.6
		l-5.8,0L9,21.5l4.3,7.1L11.4,28.6z"/>
	<polygon fill="#35537B" points="17,1 16,1 16,8.9 24,8.9 24,8 	"/>
	<path fill="#35537B" d="M14.1,9.7V1H1.7C1.3,1,1,1.3,1,1.6v31.8C1,33.7,1.3,34,1.7,34h21.7c0.4,0,0.7-0.3,0.7-0.6V10.6h-8.9
		C14.5,10.6,14.1,10.2,14.1,9.7z M19,14c1.1,0,2,1,2,2c0,1-0.9,2-2,2s-2-1-2-2C17,15,17.9,14,19,14z M16.1,20.7
		c0.4,0,0.7,0.2,0.9,0.5l4.9,7.9c0.2,0.3,0.2,0.6,0,0.9c-0.2,0.3-0.5,0.4-0.9,0.4h0l-6,0c0,0,0,0,0,0c0,0,0,0,0,0l-11,0
		c-0.3,0-0.7-0.2-0.8-0.4s-0.2-0.6-0.1-0.8l5.1-9.7c0.2-0.3,0.5-0.5,0.9-0.5c0.4,0,0.7,0.2,0.9,0.5l3.4,5.5l1.9-3.7
		C15.4,20.9,15.7,20.7,16.1,20.7z"/>
	<polygon fill="#35537B" points="19.3,28.6 16.2,23.5 14.5,26.8 15.6,28.6 	"/>
	<polygon fill="#35537B" points="5.6,28.6 11.4,28.6 13.3,28.6 9,21.5 	"/>
</g>
</svg>
