<?xml version="1.0" encoding="utf-8"?>
<!-- Generator: Adobe Illustrator 25.4.1, SVG Export Plug-In . SVG Version: 6.00 Build 0)  -->
<svg version="1.1" baseProfile="tiny" id="Image" xmlns="http://www.w3.org/2000/svg" xmlns:xlink="http://www.w3.org/1999/xlink"
	 x="0px" y="0px" viewBox="0 0 25 35" overflow="visible" xml:space="preserve">
<g>
	<polygon fill="#35537B" points="16.9,1 16,1 16,10 24,10 24,9 	"/>
	<path fill="#35537B" d="M14,11V1H1.7C1.3,1,1,1.3,1,1.7v31.7C1,33.7,1.3,34,1.7,34h21.7c0.4,0,0.7-0.3,0.7-0.7V12h-9
		C14.4,12,14,11.6,14,11z M5.3,16.5c1,0,1.8,0.8,1.8,1.8c0,1-0.8,1.8-1.8,1.8c-1,0-1.8-0.8-1.8-1.8C3.5,17.3,4.3,16.5,5.3,16.5z
		 M18.5,21.4c0.3,0,0.5,0.1,0.7,0.4l2.5,3c0.2,0.2,0.2,0.4,0.2,0.6l0,4.6c0,0.6-0.4,1-1,1h-3v0c0,0,0,0,0,0c-5.4,0-13.7-0.1-14.5,0
		c-0.1,0-0.1,0-0.2,0c-0.2,0-0.5-0.1-0.7-0.3c-0.4-0.4-0.4-1-0.1-1.4l7-7.7c0.2-0.2,0.4-0.3,0.7-0.3c0.3,0,0.5,0.1,0.7,0.3l3.5,3.5
		l3.3-3.4C18,21.5,18.3,21.4,18.5,21.4z"/>
	<polygon fill="#35537B" points="20,29 20,25.8 18.4,23.9 15.9,26.5 18.4,29 	"/>
	<path fill="#35537B" d="M5.6,28.8c0.6,0,1.3,0,2.1,0c1.8,0,4.4,0,8,0l-5.3-5.3L5.6,28.8z"/>
</g>
</svg>
