<?xml version="1.0" encoding="utf-8"?>
<!-- Generator: Adobe Illustrator 25.4.1, SVG Export Plug-In . SVG Version: 6.00 Build 0)  -->
<svg version="1.1" baseProfile="tiny" xmlns="http://www.w3.org/2000/svg" xmlns:xlink="http://www.w3.org/1999/xlink" x="0px"
	 y="0px" viewBox="0 0 25 35" overflow="visible" xml:space="preserve">
<g id="Main">
</g>
<g id="Layer_2">
	<g>
		<polygon fill="#35537B" points="17,1 16.1,1 16.1,9.9 24,9.9 24,8.9 		"/>
		<polygon fill="#35537B" points="10,18.8 10,25.2 15.4,22 		"/>
		<path fill="#35537B" d="M14.1,10.9V1H1.7C1.3,1,1,1.3,1,1.7v31.7C1,33.7,1.3,34,1.7,34h21.7c0.4,0,0.7-0.3,0.7-0.7V11.9h-8.9
			C14.5,11.9,14.1,11.4,14.1,10.9z M18.3,22c0,0.4-0.2,0.7-0.5,0.9l-8.3,5C9.4,28,9.2,28,9,28c-0.2,0-0.3,0-0.5-0.1
			C8.2,27.7,8,27.4,8,27V17c0-0.4,0.2-0.7,0.5-0.9c0.3-0.2,0.7-0.2,1,0l8.3,5C18.1,21.3,18.3,21.6,18.3,22z"/>
	</g>
</g>
</svg>
