<?xml version="1.0" encoding="utf-8"?>
<!-- Generator: Adobe Illustrator 25.4.1, SVG Export Plug-In . SVG Version: 6.00 Build 0)  -->
<svg version="1.1" baseProfile="tiny" id="Acrobat" xmlns="http://www.w3.org/2000/svg" xmlns:xlink="http://www.w3.org/1999/xlink"
	 x="0px" y="0px" viewBox="0 0 25 35" overflow="visible" xml:space="preserve">
<g>
	<polygon fill="#35537B" points="17,1 16.1,1 16.1,9.9 24,9.9 24,8.9 	"/>
	<path fill="#35537B" d="M11,24.7c0,0,1.6-0.4,2.9-0.7c-0.4-0.4-1.6-2.2-1.6-2.2L11,24.7z"/>
	<path fill="#35537B" d="M4.1,30.1c0,0,0.3,0.6,1.4-0.2c0.8-0.5,2.3-2.3,2.3-3C5.5,27.9,3.5,29.1,4.1,30.1z"/>
	<path fill="#35537B" d="M12.1,14.9c0-1.1-1.1-1.4-1.2,0.1c-0.2,1.2,0.5,3.3,0.5,3.3C11.9,17.4,12.1,15.8,12.1,14.9z"/>
	<path fill="#35537B" d="M14.1,10.9V1H1.7C1.3,1,1,1.3,1,1.7v31.7C1,33.7,1.3,34,1.7,34h21.7c0.4,0,0.7-0.3,0.7-0.7V11.9h-8.9
		C14.5,11.9,14.1,11.4,14.1,10.9z M19.8,23.6c1.2,0.3,2.1,0.9,2.1,1.9c0,1-0.6,1.7-2.4,1.6s-4-1.4-4.6-2.1c-0.9,0.2-4.5,1-4.8,1.3
		c-0.3,0.5-2.4,4-4,4.8c-2.9,1.4-4.3-1.4-2-3.1c1.1-1.1,4.2-2.2,4.2-2.2s2.5-5.5,2.5-6.2c-0.2-0.5-1.5-3-0.9-5.2
		c0.4-0.9,0.8-1.3,1.5-1.3c2.4,0.1,2.7,3,1.2,7.4c0.6,1,1.8,2.8,2.6,3.4C16.1,23.6,18.6,23.3,19.8,23.6z"/>
	<path fill="#35537B" d="M19.1,26.1c0.9,0.1,1.4-0.2,1.4-0.4s0.1-1-0.9-1.1c-0.8-0.1-3.6,0-3.6,0S17.2,25.8,19.1,26.1z"/>
</g>
</svg>
