<?xml version="1.0" encoding="utf-8"?>
<!-- Generator: Adobe Illustrator 25.4.1, SVG Export Plug-In . SVG Version: 6.00 Build 0)  -->
<svg version="1.1" baseProfile="tiny" id="Layer_1" xmlns="http://www.w3.org/2000/svg" xmlns:xlink="http://www.w3.org/1999/xlink"
	 x="0px" y="0px" viewBox="0 0 851.5 177.6" overflow="visible" xml:space="preserve">
<g id="Layer_2_00000024721842458714001170000013034940626124513211_">
	<path fill="#E08721" d="M784.8,177H0V-0.2h851.5v121.7C851.5,152.2,821.5,177,784.8,177z"/>
</g>
<g id="Layer_3">
	<g>
		<polyline fill="#FFBE69" points="83.3,108.4 83.3,68.9 57.2,76.1 57.2,115.6 		"/>
		<polyline fill="#FFAD4B" points="55.5,76.1 29.4,68.9 29.4,107.5 55.5,115.7 55.5,115.6 		"/>
		<polygon fill="#FFECBA" points="82.8,68.1 82.8,68.1 82.9,68.1 56.3,60.9 29.4,68 56.3,75.2 		"/>
	</g>
	<g>
		<polyline fill="#FFBE69" points="138.9,107.5 138.9,68.9 112.9,76.1 112.9,115.6 		"/>
		<polyline fill="#FFAD4B" points="111.1,76.1 85,68.9 85,108.4 111.1,115.7 111.1,115.6 		"/>
		<polygon fill="#FFECBA" points="138.4,68.1 138.4,68.1 138.5,68.1 112,60.9 85,68 112,75.2 		"/>
	</g>
	<g>
		<polyline fill="#FFBE69" points="166.8,59 166.8,20.4 140.7,27.6 140.7,67.1 		"/>
		<polyline fill="#FFAD4B" points="138.9,27.6 112.9,20.4 112.9,59.9 138.9,67.2 138.9,67.1 		"/>
		<polygon fill="#FFECBA" points="166.2,19.7 166.2,19.7 166.4,19.6 139.8,13.3 112.9,19.5 139.8,26.7 		"/>
	</g>
	<g>
		<polyline fill="#FFBE69" points="222.5,59 222.5,20.4 196.4,27.6 196.4,67.1 		"/>
		<polyline fill="#FFAD4B" points="194.6,27.6 168.6,20.4 168.6,59 194.6,67.2 194.6,67.1 		"/>
		<polygon fill="#FFECBA" points="221.9,19.7 221.9,19.7 222.1,19.6 195.5,13.3 168.6,19.5 195.5,26.7 		"/>
	</g>
	<g>
		<polyline fill="#FFBE69" points="111.1,156 111.1,117.4 85,124.5 85,164.1 		"/>
		<polyline fill="#FFAD4B" points="83.3,124.5 57.2,117.4 57.2,156 83.3,164.1 83.3,164.1 		"/>
		<polygon fill="#FFECBA" points="110.6,116.6 110.6,116.6 110.7,116.5 84.2,109.3 57.2,116.5 84.2,123.6 		"/>
	</g>
</g>
<g id="Layer_4">
	<rect x="268.5" y="44.1" fill="none" width="538.4" height="85.9"/>
	<g>
		<path fill="#FFF7E6" d="M271.5,116.6c-1.3,0-2-0.5-2-1.5c0-0.3,0.1-0.8,0.3-1.2c0.2-0.5,0.3-1,0.5-1.6l21.8-61
			c0.3-0.7,0.5-1.2,0.9-1.5c0.3-0.3,0.6-0.6,1-0.8s0.9-0.3,1.6-0.3h10.9c1,0,1.8,0.2,2.3,0.6s0.9,1,1.2,2l21.8,61
			c0.2,0.6,0.3,1.1,0.5,1.6c0.2,0.5,0.3,0.9,0.3,1.2c0,0.9-0.7,1.5-2,1.5h-10.8c-0.9,0-1.7-0.2-2.2-0.5s-0.9-1-1.2-2l-4-12.9h-23.4
			l-3.9,12.9c-0.3,0.9-0.8,1.6-1.2,2c-0.5,0.3-1.3,0.5-2.3,0.5H271.5z M309.3,90.6l-8.7-28.5l-8.5,28.5H309.3z"/>
	</g>
	<g>
		<path fill="#FFF7E6" d="M342.2,116.6c-0.9,0-1.5-0.2-1.9-0.6c-0.4-0.4-0.6-1-0.6-1.9V69c0-0.9,0.2-1.5,0.6-1.9
			c0.4-0.3,1-0.5,1.9-0.5h7c1.5,0,2.4,0.7,2.7,2.1l0.8,2.7c3.4-2.3,6.6-3.9,9.3-4.9c2.7-0.9,5.7-1.5,8.6-1.5c5.9,0,10,2.1,12.4,6.3
			c3.3-2.2,6.4-3.9,9.4-4.8c2.9-0.9,6-1.5,9.1-1.5c4.5,0,8.1,1.3,10.6,3.9c2.5,2.6,3.8,6.1,3.8,10.7v34.6c0,0.9-0.2,1.5-0.5,1.9
			c-0.3,0.4-1,0.6-1.9,0.6h-9.4c-0.9,0-1.5-0.2-1.9-0.6c-0.4-0.4-0.6-1-0.6-1.9V82.8c0-4.5-2-6.7-6-6.7c-3.5,0-7.1,0.9-10.7,2.6
			v35.6c0,0.9-0.2,1.5-0.5,1.9c-0.3,0.4-1,0.6-1.9,0.6h-9.4c-0.9,0-1.5-0.2-1.9-0.6s-0.6-1-0.6-1.9V82.8c0-4.5-2-6.7-6-6.7
			c-3.7,0-7.3,0.9-10.8,2.7v35.5c0,0.9-0.2,1.5-0.5,1.9c-0.3,0.4-1,0.6-1.9,0.6L342.2,116.6L342.2,116.6z"/>
	</g>
	<g>
		<path fill="#FFF7E6" d="M440.6,118.2c-4.8,0-8.7-1.4-11.6-4.1c-2.9-2.7-4.4-6.4-4.4-11c0-3.2,0.9-6,2.5-8.5
			c1.6-2.5,3.9-4.3,6.9-5.6c2.9-1.3,6.3-1.9,10.1-1.9c3.2,0,6.6,0.4,10.4,1.3v-4.9c0-3-0.6-5.1-1.9-6.2c-1.2-1.1-3.5-1.6-6.9-1.6
			c-4.5,0-9.4,0.8-15,2.3c-0.2,0.1-0.4,0.1-0.6,0.2c-0.2,0-0.3,0.1-0.5,0.1c-1.1,0-1.6-0.8-1.6-2.2v-4.4c0-1,0.2-1.8,0.4-2.1
			c0.3-0.4,0.9-0.8,1.8-1.2c2.3-0.9,5.1-1.7,8.3-2.3c3.3-0.5,6.5-0.9,9.9-0.9c6.7,0,11.7,1.4,14.7,4c3.1,2.7,4.6,6.9,4.6,12.8v32.2
			c0,0.9-0.2,1.5-0.5,1.9c-0.3,0.4-1,0.6-1.9,0.6h-6.7c-0.8,0-1.4-0.2-1.8-0.5c-0.4-0.3-0.8-0.9-0.9-1.6l-0.6-2.2
			c-2.1,1.8-4.4,3.3-7,4.4C445.6,117.7,443,118.2,440.6,118.2z M444.6,108.6c1.6,0,3.3-0.3,5.1-1.1c1.7-0.7,3.3-1.7,4.9-2.9v-8.5
			c-2.9-0.4-5.5-0.7-7.7-0.7c-5.7,0-8.5,2.3-8.5,6.9c0,2.1,0.5,3.6,1.6,4.7C441,108.1,442.5,108.6,444.6,108.6z"/>
	</g>
	<g>
		<path fill="#FFF7E6" d="M477.7,116.6c-0.9,0-1.5-0.2-1.9-0.6c-0.4-0.4-0.6-1-0.6-1.9v-5c0-1,0.1-1.9,0.3-2.4s0.6-1.2,1.2-1.9
			l24.2-27.7h-22.4c-0.9,0-1.5-0.2-1.9-0.6c-0.4-0.4-0.6-1-0.6-1.9V69c0-0.9,0.2-1.5,0.6-1.9c0.4-0.3,1-0.5,1.9-0.5h35.7
			c0.9,0,1.5,0.2,1.9,0.5s0.5,1,0.5,1.9v5.2c0,1-0.1,1.9-0.3,2.4c-0.3,0.5-0.6,1.2-1.2,1.9l-24.5,27.5h24.1c0.9,0,1.5,0.2,1.9,0.5
			s0.5,1,0.5,1.9v5.7c0,0.9-0.2,1.5-0.5,1.9c-0.3,0.4-1,0.6-1.9,0.6C514.6,116.6,477.7,116.6,477.7,116.6z"/>
	</g>
	<g>
		<path fill="#FFF7E6" d="M546.8,118.1c-7.8,0-13.9-2.3-18.3-7c-4.4-4.6-6.6-11.1-6.6-19.5c0-8.3,2.2-14.7,6.6-19.5
			c4.4-4.6,10.5-7,18.3-7c7.8,0,13.9,2.3,18.3,7c4.4,4.6,6.6,11.1,6.6,19.5c0,8.4-2.2,14.9-6.6,19.5
			C560.7,115.8,554.6,118.1,546.8,118.1z M546.8,107.1c6.9,0,10.3-5.2,10.3-15.6c0-10.3-3.4-15.5-10.3-15.5
			c-6.9,0-10.3,5.1-10.3,15.5C536.5,102,539.9,107.1,546.8,107.1z"/>
	</g>
	<g>
		<path fill="#FFF7E6" d="M583.1,116.6c-0.9,0-1.5-0.2-1.9-0.6c-0.4-0.4-0.6-1-0.6-1.9V69c0-0.9,0.2-1.5,0.6-1.9
			c0.4-0.3,1-0.5,1.9-0.5h7c1.5,0,2.4,0.7,2.7,2.1l0.9,3.3c5.9-4.5,12.2-6.9,18.8-6.9c4.6,0,8.2,1.3,10.7,3.8S627,75,627,79.7v34.6
			c0,0.9-0.2,1.5-0.5,1.9s-1,0.6-1.9,0.6h-9.4c-0.9,0-1.5-0.2-1.9-0.6s-0.6-1-0.6-1.9V83.8c0-2.7-0.6-4.6-1.8-5.9
			c-1.2-1.2-3-1.9-5.4-1.9c-3.6,0-7.1,1.1-10.7,3.3v34.8c0,0.9-0.2,1.5-0.5,1.9c-0.3,0.4-1,0.6-1.9,0.6H583.1z"/>
	</g>
	<g>
		<path fill="#FFF7E6" d="M685.3,118.3c-6.6,0-12.6-0.9-18.1-2.9c-0.9-0.3-1.5-0.6-1.8-1.1c-0.3-0.5-0.5-1.3-0.5-2.3v-6
			c0-1.5,0.5-2.2,1.5-2.2c0.2,0,0.4,0,0.8,0.1c0.3,0.1,0.7,0.2,1.1,0.3c6.3,1.6,12.1,2.5,17.1,2.5c3.9,0,6.9-0.7,8.9-2.1
			c2.1-1.4,3.2-3.4,3.2-6c0-2.1-0.6-3.6-1.9-4.8c-1.3-1.2-3.9-2.5-7.7-3.9l-7.5-2.7c-5.8-2.1-10-4.8-12.5-7.9
			c-2.6-3.1-3.9-7-3.9-11.8c0-6.2,2.2-11.1,6.8-14.7c4.5-3.7,10.6-5.5,18.3-5.5c5.5,0,11,0.9,16.5,2.7c0.9,0.3,1.5,0.6,1.8,1.1
			c0.3,0.5,0.5,1.3,0.5,2.3v5.9c0,1.5-0.5,2.2-1.5,2.2c-0.3,0-1-0.2-2.1-0.4c-2.2-0.7-4.6-1.2-7.3-1.5c-2.6-0.4-4.9-0.6-6.8-0.6
			c-7.7,0-11.6,2.5-11.6,7.5c0,1.8,0.7,3.3,2,4.5c1.4,1.2,3.9,2.4,7.5,3.7l7.3,2.7c6.1,2.2,10.4,4.8,12.9,7.8
			c2.6,3,3.9,6.9,3.9,11.6c0,6.8-2.4,12-7.3,15.9C700.4,116.4,693.8,118.3,685.3,118.3z"/>
	</g>
	<g>
		<path fill="#FFF7E6" d="M739.4,118.1c-2.6,0-5.4-0.3-8.3-0.9c-2.9-0.5-5.6-1.3-8.1-2.3c-0.9-0.3-1.5-0.7-1.7-1.1s-0.4-1.2-0.4-2.2
			v-5.7c0-1.5,0.5-2.2,1.6-2.2c0.2,0,0.4,0,0.6,0.1c0.3,0.1,0.6,0.2,1.1,0.3c6.4,1.8,11.3,2.7,14.6,2.7c4.2,0,7.4-0.9,9.5-2.7
			c2.2-1.8,3.3-4.5,3.3-7.9c0-3.1-1-5.3-3-6.8c-2.1-1.5-5.1-2.2-9.4-2.2c-1.7,0-3.1,0.1-4.3,0.2c-1.1,0.2-2.1,0.2-2.9,0.2
			c-1.3,0-2-0.8-2-2.3v-3.5c0-1.2,0.1-2.1,0.3-2.7c0.3-0.6,0.7-1.3,1.5-2.1l15.8-17.1h-23.5c-0.9,0-1.5-0.2-1.9-0.6s-0.6-1-0.6-1.9
			v-6.3c0-0.9,0.2-1.5,0.6-1.9c0.4-0.3,1-0.5,1.9-0.5h36.4c0.9,0,1.5,0.2,1.9,0.5c0.3,0.3,0.5,1,0.5,1.9v5.4c0,1.2-0.1,2.1-0.3,2.7
			c-0.3,0.6-0.7,1.3-1.5,2.1L745.6,77c6.3,0.3,11.2,2.2,14.8,5.6c3.6,3.4,5.4,7.9,5.4,13.5c0,4.5-1.1,8.4-3.3,11.7
			c-2.2,3.3-5.4,5.9-9.4,7.6C749.3,117.2,744.6,118.1,739.4,118.1z"/>
	</g>
</g>
</svg>
