<?xml version="1.0" encoding="utf-8"?>
<!-- Generator: Adobe Illustrator 25.2.3, SVG Export Plug-In . SVG Version: 6.00 Build 0)  -->
<svg version="1.1" id="Layer_3" xmlns="http://www.w3.org/2000/svg" xmlns:xlink="http://www.w3.org/1999/xlink" x="0px" y="0px"
	 viewBox="0 0 612 287.64" style="enable-background:new 0 0 612 287.64;" xml:space="preserve">
<style type="text/css">
	.st0{fill:#E08721;}
	.st1{fill:#FFFBD4;}
	.st2{fill:#FFBE69;}
	.st3{fill:#FFAD4B;}
	.st4{fill:#FFECBA;}
</style>
<g>
	<polygon class="st0" points="231.82,129.75 227,145.88 237.34,145.88 232.44,129.75 	"/>
	<path class="st0" d="M320.48,148.92c-0.86,0-1.73,0.08-2.59,0.24c-0.86,0.16-1.64,0.41-2.32,0.76s-1.23,0.79-1.64,1.34
		c-0.41,0.55-0.61,1.22-0.61,2c0,1.29,0.38,2.29,1.12,3c0.75,0.71,1.99,1.07,3.72,1.07c2.18,0,3.82-0.4,4.91-1.21
		c1.09-0.8,1.89-1.67,2.39-2.59v-4.14c-0.45-0.09-1.14-0.19-2.05-0.31C322.51,148.98,321.53,148.92,320.48,148.92z"/>
	<path class="st0" d="M403.31,136.3c-1.29,0-2.48,0.2-3.59,0.59c-1.1,0.39-2.06,1.02-2.86,1.9c-0.8,0.87-1.44,1.98-1.9,3.31
		c-0.46,1.33-0.69,2.94-0.69,4.83c0,1.52,0.21,2.92,0.62,4.21c0.41,1.29,1.01,2.41,1.79,3.38c0.78,0.97,1.72,1.71,2.83,2.24
		c1.1,0.53,2.37,0.79,3.79,0.79c2.67,0,4.84-0.85,6.52-2.55c1.68-1.7,2.52-4.39,2.52-8.07c0-3.17-0.78-5.73-2.34-7.69
		C408.44,137.28,406.21,136.3,403.31,136.3z"/>
	<path class="st0" d="M612,240.54C612,191.36,612-1,612-1H0v288.62h561.44c0.04,0,0.39,0.01,0.99,0.01
		C569.52,287.64,612,285.89,612,240.54z M192.34,170.72l-39.36,12.41l-0.1,54.02l-39.45,15.44l-40.24-15.36l0.1-54.12l-40-12.27
		l0.1-57.14l39.45-10.11l40.14,10l39.22-10.04l-0.42-59.48l39.45-9.11l40.24,9.03v0l39.17-9.03l40.24,9.03l-0.1,57.14l-39.45,12.44
		l-40.23-11.35l-38.94,11.27l0.28,0.08L192.34,170.72z M242.65,164.16l-3.45-10.69h-14.41l-3.31,10.69h-9.45l15.58-48.27h9.45
		l15.51,48.27H242.65z M298.16,164.16h-8.27v-22.07c0-2.07-0.33-3.52-1-4.34c-0.67-0.83-1.48-1.24-2.45-1.24
		c-0.83,0-1.54,0.2-2.14,0.59c-0.6,0.39-1.01,1.02-1.24,1.9v25.17h-8.27v-21.1c0-1.38-0.09-2.49-0.28-3.34
		c-0.18-0.85-0.43-1.52-0.72-2c-0.3-0.48-0.67-0.8-1.1-0.97c-0.44-0.16-0.89-0.24-1.34-0.24c-0.78,0-1.51,0.25-2.17,0.76
		c-0.67,0.51-1.11,1.15-1.34,1.93v24.96h-8.27v-34.48h6.55l0.97,3.79h0.21c0.69-1.33,1.7-2.42,3.03-3.28
		c1.33-0.85,2.9-1.28,4.69-1.28c1.52,0,2.96,0.37,4.34,1.1c1.38,0.74,2.32,2.02,2.83,3.86c0.69-1.61,1.75-2.84,3.17-3.69
		c1.42-0.85,2.97-1.28,4.62-1.28c1.24,0,2.36,0.17,3.34,0.52c0.99,0.34,1.85,0.95,2.59,1.83c0.73,0.87,1.3,2.06,1.69,3.55
		c0.39,1.49,0.59,3.41,0.59,5.76V164.16z M338.84,164.16h-11.57l-0.91-4.69h-0.34c-0.91,1.43-2.22,2.65-3.91,3.69
		c-1.69,1.03-3.97,1.55-6.85,1.55c-3.43,0-6.15-0.92-8.16-2.76c-2.01-1.84-3.01-4.28-3.01-7.31c0-1.93,0.35-3.6,1.06-5
		c0.71-1.4,1.74-2.55,3.08-3.45s2.97-1.56,4.87-2c1.89-0.44,4.01-0.66,6.34-0.66c0.82,0,1.69,0.05,2.6,0.14
		c0.91,0.09,2.03,0.18,3.36,0.28c0.09-0.46,0.14-0.92,0.14-1.38v-1.31c0-1.75-0.5-3-1.51-3.76c-1-0.76-2.49-1.14-4.45-1.14
		c-2.33,0-4.43,0.3-6.3,0.9c-1.87,0.6-3.45,1.2-4.72,1.79l-2.12-7.03c1.84-0.83,3.96-1.54,6.38-2.14c2.41-0.6,5.28-0.9,8.58-0.9
		c2.39,0,4.42,0.29,6.1,0.86c1.68,0.58,3.03,1.39,4.07,2.45c1.03,1.06,1.78,2.32,2.24,3.79c0.46,1.47,0.69,3.13,0.69,4.96
		c0,2.34-0.08,4.34-0.24,6c-0.16,1.65-0.24,3.13-0.24,4.41c0,0.97,0.04,2.05,0.14,3.24c0.09,0.64,0.16,1.26,0.21,1.86h4.48V164.16z
		 M378.56,137.27l-21.03,19.31h21.03v7.58h-32.55v-7.58l21.24-19.31h-21.24v-7.58h32.55V137.27z M420.27,154.64
		c-0.87,2.25-2.12,4.16-3.72,5.72c-1.61,1.56-3.53,2.75-5.76,3.55c-2.23,0.8-4.72,1.21-7.48,1.21c-2.9,0-5.48-0.44-7.76-1.31
		s-4.2-2.1-5.76-3.69s-2.75-3.5-3.55-5.76c-0.8-2.25-1.21-4.73-1.21-7.45c0-2.9,0.44-5.47,1.31-7.72c0.87-2.25,2.11-4.16,3.72-5.72
		c1.61-1.56,3.53-2.75,5.76-3.55c2.23-0.8,4.72-1.21,7.48-1.21c2.9,0,5.48,0.44,7.76,1.31c2.28,0.87,4.19,2.1,5.76,3.69
		s2.75,3.51,3.55,5.76c0.8,2.25,1.21,4.74,1.21,7.45C421.58,149.81,421.15,152.39,420.27,154.64z M461.92,164.16h-8.96v-19.58
		c0-2.8-0.63-4.83-1.9-6.07c-1.26-1.24-2.86-1.86-4.79-1.86c-1.7,0-3.25,0.49-4.65,1.48c-1.4,0.99-2.36,2.22-2.86,3.69v22.34h-8.96
		v-26.89h-4.96v-7.58h12.07l1.03,4.55h0.28c1.06-1.47,2.57-2.76,4.55-3.86c1.98-1.1,4.34-1.65,7.1-1.65c1.7,0,3.3,0.23,4.79,0.69
		c1.49,0.46,2.77,1.22,3.83,2.28c1.06,1.06,1.9,2.49,2.52,4.31c0.62,1.82,0.93,4.06,0.93,6.72V164.16z M529.15,156.68
		c-0.92,1.86-2.21,3.42-3.86,4.69c-1.66,1.26-3.61,2.21-5.86,2.83c-2.25,0.62-4.69,0.93-7.31,0.93c-1.75,0-3.37-0.14-4.86-0.41
		c-1.5-0.28-2.87-0.62-4.14-1.03c-1.26-0.41-2.38-0.85-3.34-1.31c-0.96-0.46-1.75-0.85-2.34-1.17v-12.83h7.58v6.83
		c0.14,0.05,0.28,0.09,0.41,0.14c1.06,0.46,2.22,0.84,3.48,1.14c1.26,0.3,2.61,0.45,4.03,0.45c2.57,0,4.57-0.52,6-1.55
		c1.42-1.03,2.14-2.42,2.14-4.17c0-1.56-0.59-2.83-1.76-3.79c-1.17-0.97-2.62-1.82-4.34-2.55c-1.72-0.73-3.61-1.47-5.65-2.21
		c-2.05-0.73-3.93-1.67-5.65-2.79c-1.72-1.13-3.17-2.54-4.34-4.24c-1.17-1.7-1.76-3.91-1.76-6.62c0-2.07,0.4-3.96,1.21-5.69
		c0.8-1.72,1.93-3.21,3.38-4.45c1.45-1.24,3.18-2.21,5.21-2.9c2.02-0.69,4.28-1.03,6.76-1.03c2.8,0,5.56,0.25,8.27,0.76
		c2.71,0.51,4.87,1.2,6.48,2.07v14h-7.58v-7.65c-0.14,0-0.28-0.02-0.41-0.07c-1.01-0.28-2.1-0.49-3.28-0.65
		c-1.17-0.16-2.33-0.24-3.48-0.24c-2.21,0-3.94,0.44-5.21,1.31c-1.26,0.87-1.9,2.05-1.9,3.52c0,1.52,0.59,2.76,1.76,3.72
		s2.62,1.84,4.34,2.62c1.72,0.78,3.61,1.56,5.65,2.34c2.04,0.78,3.93,1.74,5.65,2.86c1.72,1.13,3.17,2.54,4.34,4.24
		c1.17,1.7,1.76,3.84,1.76,6.41C530.53,152.64,530.07,154.81,529.15,156.68z M569.04,156.09c-1.08,1.98-2.51,3.64-4.28,5
		c-1.77,1.36-3.8,2.37-6.1,3.03c-2.3,0.67-4.67,1-7.1,1c-2.07,0-4.14-0.18-6.21-0.55c-2.07-0.37-4.07-0.94-6-1.72l2.41-7.45
		c0.41,0.23,0.98,0.46,1.69,0.69c0.71,0.23,1.52,0.46,2.41,0.69c0.9,0.23,1.82,0.41,2.76,0.55c0.94,0.14,1.87,0.21,2.79,0.21
		c1.52,0,2.91-0.19,4.17-0.58c1.26-0.39,2.34-0.94,3.24-1.65s1.6-1.53,2.1-2.47c0.51-0.94,0.76-1.96,0.76-3.05
		c0-1.37-0.29-2.53-0.86-3.47c-0.58-0.94-1.37-1.68-2.38-2.23c-1.01-0.55-2.23-0.94-3.65-1.17c-1.43-0.23-2.96-0.34-4.62-0.34h-3.86
		v-4.95l11.58-14.15h-17.45v-7.59h28.13v6.27l-12.14,13.86h1.59c1.61,0,3.17,0.28,4.69,0.83c1.52,0.55,2.86,1.38,4.03,2.48
		c1.17,1.1,2.11,2.48,2.83,4.14c0.71,1.65,1.07,3.56,1.07,5.72C570.66,151.81,570.12,154.11,569.04,156.09z"/>
	<path class="st1" d="M227.62,115.89l-15.58,48.27h9.45l3.31-10.69h14.41l3.45,10.69h9.93l-15.51-48.27H227.62z M227,145.88
		l4.83-16.14h0.62l4.9,16.14H227z"/>
	<path class="st1" d="M295.88,131.27c-0.74-0.87-1.6-1.48-2.59-1.83c-0.99-0.34-2.1-0.52-3.34-0.52c-1.65,0-3.2,0.43-4.62,1.28
		c-1.43,0.85-2.48,2.08-3.17,3.69c-0.51-1.84-1.45-3.13-2.83-3.86c-1.38-0.73-2.83-1.1-4.34-1.1c-1.79,0-3.36,0.43-4.69,1.28
		c-1.33,0.85-2.34,1.94-3.03,3.28h-0.21l-0.97-3.79h-6.55v34.48h8.27V139.2c0.23-0.78,0.68-1.42,1.34-1.93
		c0.67-0.5,1.39-0.76,2.17-0.76c0.46,0,0.91,0.08,1.34,0.24c0.44,0.16,0.8,0.48,1.1,0.97c0.3,0.48,0.54,1.15,0.72,2
		c0.18,0.85,0.28,1.96,0.28,3.34v21.1h8.27v-25.17c0.23-0.87,0.64-1.51,1.24-1.9c0.6-0.39,1.31-0.59,2.14-0.59
		c0.97,0,1.78,0.41,2.45,1.24c0.67,0.83,1,2.28,1,4.34v22.07h8.27v-23.58c0-2.34-0.2-4.26-0.59-5.76
		C297.18,133.32,296.62,132.14,295.88,131.27z"/>
	<path class="st1" d="M334.15,154.71c-0.09-1.19-0.14-2.28-0.14-3.24c0-1.29,0.08-2.76,0.24-4.41c0.16-1.66,0.24-3.65,0.24-6
		c0-1.84-0.23-3.49-0.69-4.96c-0.46-1.47-1.21-2.73-2.24-3.79c-1.03-1.06-2.39-1.87-4.07-2.45c-1.68-0.57-3.71-0.86-6.1-0.86
		c-3.31,0-6.17,0.3-8.58,0.9c-2.41,0.6-4.54,1.31-6.38,2.14l2.12,7.03c1.28-0.6,2.85-1.19,4.72-1.79c1.87-0.6,3.97-0.9,6.3-0.9
		c1.96,0,3.45,0.38,4.45,1.14c1,0.76,1.51,2.01,1.51,3.76v1.31c0,0.46-0.05,0.92-0.14,1.38c-1.33-0.09-2.44-0.18-3.36-0.28
		c-0.91-0.09-1.78-0.14-2.6-0.14c-2.33,0-4.44,0.22-6.34,0.66c-1.9,0.44-3.52,1.1-4.87,2s-2.38,2.05-3.08,3.45
		c-0.71,1.4-1.06,3.07-1.06,5c0,3.03,1,5.47,3.01,7.31c2.01,1.84,4.73,2.76,8.16,2.76c2.88,0,5.16-0.52,6.85-1.55
		c1.69-1.03,2.99-2.26,3.91-3.69h0.34l0.91,4.69h11.57v-7.58h-4.48C334.31,155.98,334.24,155.35,334.15,154.71z M325.46,153.54
		c-0.5,0.92-1.3,1.78-2.39,2.59c-1.09,0.8-2.73,1.21-4.91,1.21c-1.73,0-2.97-0.36-3.72-1.07c-0.75-0.71-1.12-1.71-1.12-3
		c0-0.78,0.2-1.45,0.61-2c0.41-0.55,0.95-1,1.64-1.34s1.45-0.6,2.32-0.76c0.86-0.16,1.73-0.24,2.59-0.24c1.04,0,2.02,0.06,2.93,0.17
		c0.91,0.12,1.59,0.22,2.05,0.31V153.54z"/>
	<polygon class="st1" points="346.01,137.27 367.25,137.27 346.01,156.57 346.01,164.16 378.56,164.16 378.56,156.57 357.53,156.57 
		378.56,137.27 378.56,129.68 346.01,129.68 	"/>
	<path class="st1" d="M416.83,133.71c-1.56-1.59-3.48-2.82-5.76-3.69c-2.28-0.87-4.86-1.31-7.76-1.31c-2.76,0-5.25,0.4-7.48,1.21
		c-2.23,0.8-4.15,1.99-5.76,3.55c-1.61,1.56-2.85,3.47-3.72,5.72c-0.87,2.25-1.31,4.83-1.31,7.72c0,2.71,0.4,5.2,1.21,7.45
		c0.8,2.25,1.99,4.17,3.55,5.76s3.48,2.82,5.76,3.69s4.86,1.31,7.76,1.31c2.76,0,5.25-0.4,7.48-1.21c2.23-0.8,4.15-1.99,5.76-3.55
		c1.61-1.56,2.85-3.47,3.72-5.72c0.87-2.25,1.31-4.83,1.31-7.72c0-2.71-0.4-5.19-1.21-7.45
		C419.57,137.22,418.39,135.3,416.83,133.71z M409.83,154.99c-1.68,1.7-3.85,2.55-6.52,2.55c-1.43,0-2.69-0.26-3.79-0.79
		c-1.1-0.53-2.05-1.28-2.83-2.24c-0.78-0.97-1.38-2.09-1.79-3.38c-0.41-1.29-0.62-2.69-0.62-4.21c0-1.88,0.23-3.49,0.69-4.83
		c0.46-1.33,1.09-2.44,1.9-3.31c0.8-0.87,1.76-1.5,2.86-1.9c1.1-0.39,2.3-0.59,3.59-0.59c2.9,0,5.12,0.98,6.69,2.93
		c1.56,1.95,2.34,4.52,2.34,7.69C412.34,150.6,411.5,153.29,409.83,154.99z"/>
	<path class="st1" d="M458.47,131.68c-1.06-1.06-2.33-1.82-3.83-2.28c-1.49-0.46-3.09-0.69-4.79-0.69c-2.76,0-5.13,0.55-7.1,1.65
		c-1.98,1.1-3.49,2.39-4.55,3.86h-0.28l-1.03-4.55h-12.07v7.58h4.96v26.89h8.96v-22.34c0.51-1.47,1.46-2.7,2.86-3.69
		c1.4-0.99,2.95-1.48,4.65-1.48c1.93,0,3.53,0.62,4.79,1.86c1.26,1.24,1.9,3.26,1.9,6.07v19.58h8.96v-21.44
		c0-2.67-0.31-4.91-0.93-6.72C460.37,134.17,459.53,132.74,458.47,131.68z"/>
	<path class="st1" d="M524.43,139.51c-1.72-1.13-3.61-2.08-5.65-2.86c-2.05-0.78-3.93-1.56-5.65-2.34
		c-1.72-0.78-3.17-1.65-4.34-2.62s-1.76-2.21-1.76-3.72c0-1.47,0.63-2.64,1.9-3.52c1.26-0.87,3-1.31,5.21-1.31
		c1.15,0,2.31,0.08,3.48,0.24c1.17,0.16,2.26,0.38,3.28,0.65c0.14,0.05,0.28,0.07,0.41,0.07v7.65h7.58v-14
		c-1.61-0.87-3.77-1.56-6.48-2.07c-2.71-0.51-5.47-0.76-8.27-0.76c-2.48,0-4.74,0.34-6.76,1.03c-2.02,0.69-3.76,1.65-5.21,2.9
		c-1.45,1.24-2.57,2.72-3.38,4.45c-0.81,1.72-1.21,3.62-1.21,5.69c0,2.71,0.59,4.92,1.76,6.62c1.17,1.7,2.62,3.11,4.34,4.24
		c1.72,1.13,3.61,2.06,5.65,2.79c2.04,0.74,3.93,1.47,5.65,2.21c1.72,0.74,3.17,1.59,4.34,2.55c1.17,0.97,1.76,2.23,1.76,3.79
		c0,1.75-0.71,3.14-2.14,4.17c-1.43,1.03-3.42,1.55-6,1.55c-1.43,0-2.77-0.15-4.03-0.45c-1.26-0.3-2.42-0.68-3.48-1.14
		c-0.14-0.05-0.28-0.09-0.41-0.14v-6.83h-7.58v12.83c0.6,0.32,1.38,0.71,2.34,1.17c0.97,0.46,2.08,0.9,3.34,1.31
		c1.26,0.41,2.64,0.76,4.14,1.03c1.49,0.28,3.11,0.41,4.86,0.41c2.62,0,5.06-0.31,7.31-0.93c2.25-0.62,4.21-1.56,5.86-2.83
		c1.66-1.26,2.94-2.83,3.86-4.69c0.92-1.86,1.38-4.03,1.38-6.52c0-2.57-0.59-4.71-1.76-6.41
		C527.6,142.05,526.15,140.63,524.43,139.51z"/>
	<path class="st1" d="M566.76,139.33c-1.17-1.1-2.52-1.93-4.03-2.48c-1.52-0.55-3.08-0.83-4.69-0.83h-1.59l12.14-13.86v-6.27h-28.13
		v7.59h17.45l-11.58,14.15v4.95h3.86c1.66,0,3.19,0.12,4.62,0.34c1.42,0.23,2.64,0.62,3.65,1.17c1.01,0.55,1.8,1.29,2.38,2.23
		c0.57,0.94,0.86,2.09,0.86,3.47c0,1.1-0.25,2.12-0.76,3.05c-0.51,0.94-1.21,1.76-2.1,2.47s-1.98,1.26-3.24,1.65
		c-1.26,0.39-2.65,0.58-4.17,0.58c-0.92,0-1.85-0.07-2.79-0.21c-0.94-0.14-1.86-0.32-2.76-0.55c-0.9-0.23-1.7-0.46-2.41-0.69
		c-0.71-0.23-1.28-0.46-1.69-0.69l-2.41,7.45c1.93,0.78,3.93,1.36,6,1.72c2.07,0.37,4.14,0.55,6.21,0.55c2.44,0,4.8-0.33,7.1-1
		c2.3-0.67,4.33-1.68,6.1-3.03c1.77-1.36,3.19-3.02,4.28-5c1.08-1.98,1.62-4.27,1.62-6.9c0-2.16-0.36-4.07-1.07-5.72
		C568.88,141.82,567.94,140.44,566.76,139.33z"/>
	<polygon class="st0" points="112.86,170.88 112.75,170.84 102.48,174.08 	"/>
	<polygon class="st2" points="152.66,183.09 113.52,194.12 113.42,252.59 152.88,237.15 152.98,183.13 152.89,183.16 	"/>
	<polygon class="st3" points="73.61,183.18 73.52,183.21 73.28,183.11 73.18,237.23 113.42,252.59 113.52,194.12 	"/>
	<polygon class="st4" points="102.48,174.08 73.61,183.18 113.52,194.12 152.66,183.09 112.86,170.88 	"/>
	<polygon class="st2" points="152.89,182.98 152.98,183.01 152.98,183.13 192.34,170.72 192.44,113.58 152.99,124.69 	"/>
	<polygon class="st2" points="152.89,183.03 152.89,183.16 152.98,183.13 152.98,183.01 	"/>
	<polygon class="st2" points="152.98,183.01 152.89,182.98 152.89,183.03 	"/>
	<polygon class="st3" points="112.75,170.84 112.86,170.88 113.08,170.81 152.89,182.98 152.99,124.69 113.08,113.75 112.98,170.77 
			"/>
	<polygon class="st3" points="152.89,183.16 152.89,183.03 152.66,183.09 	"/>
	<polygon class="st3" points="112.86,170.88 152.66,183.09 152.89,183.03 152.89,182.98 113.08,170.81 	"/>
	<polygon class="st4" points="191.92,113.58 152.2,103.55 112.98,113.59 113.08,113.62 113.08,113.75 152.99,124.69 192.44,113.58 
		192.16,113.5 	"/>
	<polygon class="st2" points="112.75,170.84 112.64,170.81 112.74,113.71 73.62,124.73 73.52,183.01 102.48,174.08 	"/>
	<polygon class="st2" points="73.52,183.21 73.61,183.18 73.52,183.15 	"/>
	<polygon class="st2" points="73.52,183.01 73.52,183.15 73.61,183.18 102.48,174.08 	"/>
	<polygon class="st2" points="112.74,113.71 112.64,170.81 112.75,170.84 112.98,170.77 113.08,113.75 112.84,113.69 	"/>
	<polygon class="st2" points="113.08,113.75 113.08,113.62 112.84,113.69 	"/>
	<polygon class="st3" points="73.52,183.01 73.62,124.73 33.38,113.7 33.28,170.84 73.28,183.11 73.28,183.09 	"/>
	<polygon class="st3" points="73.52,183.15 73.28,183.09 73.28,183.11 73.52,183.21 	"/>
	<polygon class="st3" points="73.28,183.09 73.52,183.15 73.52,183.01 	"/>
	<polygon class="st4" points="112.74,113.71 112.74,113.66 112.98,113.59 72.84,103.59 33.38,113.7 73.62,124.73 	"/>
	<polygon class="st4" points="112.74,113.66 112.74,113.71 112.84,113.69 	"/>
	<polygon class="st4" points="112.84,113.69 113.08,113.62 112.98,113.59 112.74,113.66 	"/>
	<polygon class="st2" points="271.33,113.58 310.78,101.13 310.88,43.99 271.43,54.23 	"/>
	<polygon class="st3" points="231.47,44.14 231.37,102.15 231.1,102.23 271.33,113.58 271.43,54.23 	"/>
	<polygon class="st4" points="271.43,54.23 310.88,43.99 270.64,34.96 231.47,43.99 231.47,44.14 	"/>
	<polygon class="st2" points="191.92,113.43 192.16,113.5 231.1,102.23 231.09,102.23 231.19,44.07 231.47,43.99 231.47,43.99 
		192.02,54.23 	"/>
	<polygon class="st2" points="191.92,113.58 192.16,113.5 191.92,113.43 	"/>
	<polygon class="st2" points="231.47,44.14 231.19,44.07 231.09,102.23 231.1,102.23 231.37,102.15 	"/>
	<polygon class="st2" points="231.47,44.14 231.47,43.99 231.19,44.07 	"/>
	<polygon class="st3" points="192.02,54.23 151.78,44.07 152.2,103.55 191.92,113.43 	"/>
	<polygon class="st3" points="191.92,113.43 152.2,103.55 191.92,113.58 	"/>
	<polygon class="st4" points="231.47,43.99 191.23,34.96 151.78,44.07 192.02,54.23 	"/>
</g>
</svg>
