<?xml version="1.0" encoding="utf-8"?>
<!-- Generator: Adobe Illustrator 25.4.1, SVG Export Plug-In . SVG Version: 6.00 Build 0)  -->
<svg version="1.1" baseProfile="tiny" id="Layer_1" xmlns="http://www.w3.org/2000/svg" xmlns:xlink="http://www.w3.org/1999/xlink"
	 x="0px" y="0px" viewBox="0 0 787 287.6" overflow="visible" xml:space="preserve">
<g id="Layer_2_00000077323429153809520190000006153714450748715153_">
	<path fill="#E08721" d="M734,263.6H0.5V-0.2h778.7v218.6C779.2,243.4,759,263.6,734,263.6z"/>
</g>
<g id="Layer_3">
	<g>
		<polyline fill="#FFBE69" points="87.9,140.4 87.9,88.4 53.6,97.9 53.6,149.8 		"/>
		<polyline fill="#FFAD4B" points="51.3,97.9 17,88.4 17,139.2 51.3,149.9 51.3,149.8 		"/>
		<polygon fill="#FFECBA" points="87.2,87.4 87.2,87.3 87.4,87.3 52.4,77.8 17,87.2 52.4,96.7 		"/>
	</g>
	<g>
		<polyline fill="#FFBE69" points="161.1,139.2 161.1,88.4 126.9,97.9 126.9,149.8 		"/>
		<polyline fill="#FFAD4B" points="124.5,97.9 90.2,88.4 90.2,140.4 124.5,149.9 124.5,149.8 		"/>
		<polygon fill="#FFECBA" points="160.4,87.4 160.4,87.3 160.6,87.3 125.7,77.8 90.2,87.2 125.7,96.7 		"/>
	</g>
	<g>
		<polyline fill="#FFBE69" points="197.8,75.4 197.8,24.6 163.5,34.1 163.5,86 		"/>
		<polyline fill="#FFAD4B" points="161.1,34.1 126.9,24.6 126.9,76.6 161.1,86.1 161.1,86 		"/>
		<polygon fill="#FFECBA" points="197,23.6 197,23.6 197.2,23.5 162.3,15.2 126.9,23.4 162.3,32.9 		"/>
	</g>
	<g>
		<polyline fill="#FFBE69" points="271,75.4 271,24.6 236.7,34.1 236.7,86 		"/>
		<polyline fill="#FFAD4B" points="234.4,34.1 200.1,24.6 200.1,75.4 234.4,86.1 234.4,86 		"/>
		<polygon fill="#FFECBA" points="270.3,23.6 270.3,23.6 270.5,23.5 235.6,15.2 200.1,23.4 235.6,32.9 		"/>
	</g>
	<g>
		<polyline fill="#FFBE69" points="124.5,203 124.5,152.2 90.2,161.6 90.2,213.6 		"/>
		<polyline fill="#FFAD4B" points="87.9,161.6 53.6,152.2 53.6,203 87.9,213.6 87.9,213.6 		"/>
		<polygon fill="#FFECBA" points="123.8,151.2 123.8,151.1 124,151 89.1,141.6 53.6,151 89.1,160.4 		"/>
	</g>
</g>
<g id="Layer_4">
	<rect x="165" y="91.9" fill="none" width="564" height="90"/>
	<text transform="matrix(1 0 0 1 165 167.915)" fill="#FFF7E6" font-family="'AmazonEmberDisplay-Bold'" font-size="102.6607px">A</text>
	
		<text transform="matrix(1 0 0 1 232.5088 167.915)" fill="#FFF7E6" font-family="'AmazonEmberDisplay-Bold'" font-size="102.6607px">m</text>
	
		<text transform="matrix(1 0 0 1 324.625 167.915)" fill="#FFF7E6" font-family="'AmazonEmberDisplay-Bold'" font-size="102.6607px">a</text>
	
		<text transform="matrix(1 0 0 1 378.3066 167.915)" fill="#FFF7E6" font-family="'AmazonEmberDisplay-Bold'" font-size="102.6607px">z</text>
	
		<text transform="matrix(1 0 0 1 426.0938 167.915)" fill="#FFF7E6" font-family="'AmazonEmberDisplay-Bold'" font-size="102.6607px">o</text>
	
		<text transform="matrix(1 0 0 1 484.8975 167.915)" fill="#FFF7E6" font-family="'AmazonEmberDisplay-Bold'" font-size="102.6607px">n</text>
	
		<text transform="matrix(1 0 0 1 547.7266 167.915)" fill="#FFF7E6" font-family="'AmazonEmberDisplay-Bold'" font-size="102.6607px"> </text>
	
		<text transform="matrix(1 0 0 1 574.623 167.915)" fill="#FFF7E6" font-family="'AmazonEmberDisplay-Bold'" font-size="102.6607px">S</text>
	
		<text transform="matrix(1 0 0 1 632.7285 167.915)" fill="#FFF7E6" font-family="'AmazonEmberDisplay-Bold'" font-size="102.6607px">3</text>
</g>
</svg>
