<?xml version="1.0" encoding="utf-8"?>
<!-- Generator: Adobe Illustrator 25.4.1, SVG Export Plug-In . SVG Version: 6.00 Build 0)  -->
<svg version="1.1" baseProfile="tiny" id="Layer_1" xmlns="http://www.w3.org/2000/svg" xmlns:xlink="http://www.w3.org/1999/xlink"
	 x="0px" y="0px" viewBox="0 0 25 35" overflow="visible" xml:space="preserve">
<g id="Zip">
	<g>
		<polygon fill="#35537B" points="16.9,1 16,1 16,10 24,10 24,9 		"/>
		<path fill="#35537B" d="M10.1,23.5c0,0.1-0.1,0.3-0.1,0.4c-0.2,0-0.3,0.1-0.4,0.1H6.2c-0.1,0-0.3-0.1-0.4-0.2s-0.1-0.2-0.1-0.4
			l0.2-6c0-0.3,0.2-0.5,0.5-0.5H8v-2H6v-2h2v-2H6V9h2V7H6V5h2V3H6V1H1.7C1.3,1,1,1.3,1,1.7v31.7C1,33.7,1.3,34,1.7,34h21.7
			c0.4,0,0.7-0.3,0.7-0.7V12h-9c-0.6,0-1-0.4-1-1V1H8v2h2v2H8v2h2v2H8v2h2v2H8v2h2v2"/>
		<polygon fill="#35537B" points="6.7,23 9,23 9,18 6.8,18 		"/>
	</g>
</g>
</svg>
